<svg width="1920" height="1080" viewBox="0 0 1920 1080" fill="none" xmlns="http://www.w3.org/2000/svg">
<g filter="url(#filter0_d_3_6)">
<path d="M1091.5 484.055C1167.5 596.5 1081.5 796.555 860 796.555C604.005 796.555 610.432 594.67 674.431 467.555C607.932 360.44 700.999 200.572 841 200.572C981.001 200.572 1118 309.929 1091.5 484.055Z" fill="#CD8C27"/>
<path d="M1893.5 825C1874.47 978.613 1892.8 1066.64 1768 1045.9C1555.5 1010.58 1546.51 923.67 1610.51 796.555C1624 672.077 1633.5 658.077 1768 623.395C1924.5 623.395 1908.5 703.895 1893.5 825Z" fill="#CD8C27"/>
<path d="M317.199 328.929C397.5 471.248 283.586 517.663 227 532.5C-16.6628 565.639 51.9267 388.5 94.9267 274.5C94.9267 209.683 131.054 152.257 195.158 154C315.092 154 383.699 177.81 317.199 328.929Z" fill="#CD8C27"/>
<path d="M292.667 902C309.511 965.436 313.612 1110.14 167.169 1122.9C-87.8593 1145.11 -54.3261 1000.67 9.67262 873.555C-13.6911 782.84 71.8151 721.763 167.169 704.786C307.171 704.786 403.665 770.885 292.667 902Z" fill="#CD8C27"/>
<path d="M2081 -33.0679C2177 43.8232 2115 419.649 1893.5 419.649C1637.51 419.649 1672 297.423 1736 170.309C1669.5 63.1944 1554.39 -33.0679 1694.39 -33.0679C1834.39 -33.0679 2192 -164.183 2081 -33.0679Z" fill="#CD8C27"/>
<path d="M1655.51 517.193C1689.51 656.479 1526.59 697.067 1470 711.904C1224.94 776.159 1362.32 531.861 1359 471.248C1355.68 410.635 1479.4 367.757 1543.5 369.5C1628.5 371.811 1621.5 377.907 1655.51 517.193Z" fill="#CD8C27"/>
<path d="M3579.57 770.5C3655.57 882.945 3569.56 1083 3348.07 1083C3092.07 1083 3098.5 881.115 3162.5 754C3096 646.886 3189.07 487.017 3329.07 487.017C3469.07 487.017 3606.07 596.375 3579.57 770.5Z" fill="#CD8C27"/>
<path d="M3005.5 754C3081.5 866.445 2995.5 1066.5 2774 1066.5C2518.01 1066.5 2524.43 864.615 2588.43 737.5C2521.93 630.386 2615 470.517 2755 470.517C2895 470.517 3032 579.875 3005.5 754Z" fill="#8E5E13"/>
<path d="M3005.5 754C3081.5 866.445 2995.5 1066.5 2774 1066.5C2518.01 1066.5 2524.43 864.615 2588.43 737.5C2521.93 630.386 2615 470.517 2755 470.517C2895 470.517 3032 579.875 3005.5 754Z" fill="#CD8C27"/>
</g>
<defs>
<filter id="filter0_d_3_6" x="-35.9999" y="-91.3413" width="3676.66" height="1250.52" filterUnits="userSpaceOnUse" color-interpolation-filters="sRGB">
<feFlood flood-opacity="0" result="BackgroundImageFix"/>
<feColorMatrix in="SourceAlpha" type="matrix" values="0 0 0 0 0 0 0 0 0 0 0 0 0 0 0 0 0 0 127 0" result="hardAlpha"/>
<feOffset dx="30" dy="30"/>
<feGaussianBlur stdDeviation="2"/>
<feComposite in2="hardAlpha" operator="out"/>
<feColorMatrix type="matrix" values="0 0 0 0 0.637019 0 0 0 0 0.439221 0 0 0 0 0.13016 0 0 0 1 0"/>
<feBlend mode="normal" in2="BackgroundImageFix" result="effect1_dropShadow_3_6"/>
<feBlend mode="normal" in="SourceGraphic" in2="effect1_dropShadow_3_6" result="shape"/>
</filter>
</defs>
</svg>
