<svg width="1807" height="988" viewBox="0 0 1807 988" fill="none" xmlns="http://www.w3.org/2000/svg">
<g filter="url(#filter0_d_3_20)">
<path d="M1173.76 628.585C1159.81 645.711 1161.7 637.307 1151 628.585C1140.3 619.863 1121.04 614.125 1135 597C1148.96 579.875 1163.06 588.278 1173.76 597C1184.46 605.722 1187.72 611.46 1173.76 628.585Z" fill="#E3A036"/>
<path d="M1481.24 130.898C1467.28 148.023 1447.29 154.836 1436.59 146.114C1425.89 137.392 1428.52 116.438 1442.48 99.3128C1456.43 82.1874 1476.42 75.375 1487.13 84.097C1497.83 92.819 1495.2 113.773 1481.24 130.898Z" fill="#E3A036"/>
<path d="M1783.11 503.61C1769.16 520.736 1749.17 527.548 1738.46 518.826C1727.76 510.104 1730.4 489.151 1744.35 472.025C1758.31 454.9 1778.3 448.087 1789 456.809C1799.7 465.531 1797.07 486.485 1783.11 503.61Z" fill="#E3A036"/>
<path d="M791.648 92.2842C777.693 109.41 757.703 116.222 747 107.5C736.297 98.7779 738.933 77.8244 752.888 60.699C766.843 43.5735 786.833 36.7612 797.536 45.4832C808.24 54.2052 805.604 75.1587 791.648 92.2842Z" fill="#E3A036"/>
<path d="M1167.87 19.3009C1153.92 36.4264 1133.93 43.2388 1123.22 34.5168C1112.52 25.7947 1115.16 4.84125 1129.11 -12.2842C1143.07 -29.4097 1163.06 -36.222 1173.76 -27.5C1184.46 -18.778 1181.83 2.17547 1167.87 19.3009Z" fill="#E3A036"/>
<path d="M456.5 727.5C442.545 744.625 422.555 751.438 411.852 742.716C401.148 733.994 403.784 713.04 417.739 695.915C431.695 678.789 451.684 671.977 462.388 680.699C473.091 689.421 470.455 710.374 456.5 727.5Z" fill="#E3A036"/>
<path d="M880.76 960.085C866.805 977.211 846.816 984.023 836.112 975.301C825.409 966.579 828.045 945.625 842 928.5C855.955 911.374 875.945 904.562 886.648 913.284C897.352 922.006 894.716 942.96 880.76 960.085Z" fill="#E3A036"/>
<path d="M434.612 376C420.657 393.125 422.555 384.722 411.851 376C401.148 367.278 381.896 361.54 395.851 344.415C409.807 327.289 423.909 335.693 434.612 344.415C445.315 353.137 448.567 358.874 434.612 376Z" fill="#E3A036"/>
<path d="M44.5 597C30.5448 614.125 32.4429 605.722 21.7395 597C11.0361 588.278 -8.21577 582.54 5.73946 565.415C19.6947 548.289 33.7965 556.693 44.5 565.415C55.2034 574.137 58.4552 579.874 44.5 597Z" fill="#E3A036"/>
</g>
<defs>
<filter id="filter0_d_3_20" x="0.846886" y="-31.2974" width="1805.73" height="1018.4" filterUnits="userSpaceOnUse" color-interpolation-filters="sRGB">
<feFlood flood-opacity="0" result="BackgroundImageFix"/>
<feColorMatrix in="SourceAlpha" type="matrix" values="0 0 0 0 0 0 0 0 0 0 0 0 0 0 0 0 0 0 127 0" result="hardAlpha"/>
<feOffset dx="7" dy="4"/>
<feGaussianBlur stdDeviation="2"/>
<feComposite in2="hardAlpha" operator="out"/>
<feColorMatrix type="matrix" values="0 0 0 0 0 0 0 0 0 0 0 0 0 0 0 0 0 0 0.25 0"/>
<feBlend mode="normal" in2="BackgroundImageFix" result="effect1_dropShadow_3_20"/>
<feBlend mode="normal" in="SourceGraphic" in2="effect1_dropShadow_3_20" result="shape"/>
</filter>
</defs>
</svg>
